<?xml version="1.0" encoding="utf-8"?>
<!-- Generator: Adobe Illustrator 24.1.1, SVG Export Plug-In . SVG Version: 6.00 Build 0)  -->
<svg version="1.1" id="Layer_1" xmlns="http://www.w3.org/2000/svg" xmlns:xlink="http://www.w3.org/1999/xlink" x="0px" y="0px"
	 viewBox="0 0 872.86 661.04" style="enable-background:new 0 0 872.86 661.04;" xml:space="preserve">
<style type="text/css">
	.st0{fill:#2F73B2;}
</style>
<g>
	<path class="st0" d="M262.03,475.83c0,0,14.68-108.53,178.76-107.25c151.94-0.01,168.54,107.25,168.54,107.25
		s13.91-81.23-106.11-121.03c-1.06-0.35-1.79-1.34-1.79-2.45v-106.4c0-0.68-0.55-1.22-1.22-1.22h-35.7c-1,0-1.81,0.81-1.81,1.81
		v98.37c0,0.85-0.69,1.54-1.54,1.54h-3.3c-0.85,0-1.54-0.69-1.54-1.54V237.04c0-0.69,0.56-1.25,1.25-1.25h45.99v-44.26l-81.72-67.67
		v222.33c0,0.85-0.69,1.54-1.54,1.54h-3.72c-0.85,0-1.54-0.69-1.54-1.54V0l-81.72,62.14v51.5h45.49c0.97,0,1.76,0.79,1.76,1.76
		v235.47c0,0.85-0.69,1.54-1.54,1.54h-5c-0.85,0-1.54-0.69-1.54-1.54V124.38c0-1.23-1-2.23-2.23-2.23h-32.56
		c-1.23,0-2.23,1-2.23,2.23v242.65c0,0.93-0.54,1.77-1.39,2.16C323.07,374.19,250.82,409.73,262.03,475.83z"/>
	<g>
		<path d="M76.94,617.16c0,14.73-2.98,26.8-11.75,34.48c-8.31,7.21-19.75,9.4-31.03,9.4c-10.19,0-20.69-2.04-27.58-5.8l4.7-18.18
			c4.86,2.82,13.16,5.8,22.25,5.8c11.28,0,19.9-5.96,19.9-20.22v-4.86h-0.31c-4.54,6.27-11.91,9.87-20.69,9.87
			C13.48,627.66,0,612.3,0,590.36c0-24.76,15.83-40.43,34.79-40.43c10.5,0,17.08,4.54,21,10.97h0.31l0.78-9.25h20.69
			c-0.31,5.01-0.63,11.44-0.63,22.88V617.16z M53.12,582.84c0-1.41-0.16-2.98-0.47-4.39c-1.72-6.27-6.27-10.5-12.85-10.5
			c-8.78,0-15.67,7.83-15.67,21.78c0,11.44,5.64,20.37,15.51,20.37c6.27,0,11.13-4.08,12.69-9.56c0.63-1.88,0.78-4.39,0.78-6.42
			V582.84z"/>
		<path d="M96.06,517.02h23.82v111.26H96.06V517.02z"/>
		<path d="M214.85,589.11c0,28.05-19.9,40.9-40.43,40.9c-22.41,0-39.65-14.73-39.65-39.49c0-24.92,16.3-40.74,41.06-40.74
			C199.17,549.78,214.85,565.92,214.85,589.11z M159.37,589.89c0,13.16,5.48,23.04,15.67,23.04c9.4,0,15.2-9.25,15.2-23.19
			c0-11.28-4.39-22.88-15.2-22.88C163.76,566.86,159.37,578.61,159.37,589.89z"/>
		<path d="M229.58,517.02h23.82v43.72h0.31c4.54-6.58,12.54-10.81,23.19-10.81c18.33,0,31.66,15.2,31.5,38.71
			c0,27.58-17.39,41.37-34.95,41.37c-8.93,0-17.71-3.29-23.04-12.38h-0.31l-0.94,10.66h-20.22c0.31-5.01,0.63-14.26,0.63-22.88
			V517.02z M253.4,595.69c0,1.57,0.16,2.98,0.47,4.23c1.57,6.27,7.05,11.28,13.95,11.28c10.19,0,16.45-7.84,16.45-21.63
			c0-11.91-5.33-21.31-16.45-21.31c-6.43,0-12.38,4.86-13.95,11.75c-0.31,1.41-0.47,2.82-0.47,4.39V595.69z"/>
		<path d="M387.07,609.8c0,7.21,0.31,14.26,1.25,18.49h-21.47l-1.41-7.68h-0.47c-5.01,6.11-12.85,9.4-21.94,9.4
			c-15.51,0-24.76-11.28-24.76-23.51c0-19.9,17.86-29.3,44.98-29.3v-0.94c0-4.23-2.19-10.03-13.95-10.03
			c-7.84,0-16.14,2.66-21.16,5.8l-4.39-15.36c5.33-2.98,15.83-6.9,29.77-6.9c25.54,0,33.54,15.04,33.54,33.22V609.8z M364.03,592.09
			c-12.54,0-22.25,2.98-22.25,12.07c0,6.11,4.07,9.09,9.4,9.09c5.8,0,10.81-3.92,12.38-8.78c0.31-1.25,0.47-2.66,0.47-4.07V592.09z"
			/>
		<path d="M406.03,517.02h23.82v111.26h-23.82V517.02z"/>
		<path d="M507.42,530.97v20.69h17.08v17.55h-17.08v27.74c0,9.25,2.35,13.48,9.4,13.48c3.29,0,4.86-0.16,7.05-0.63l0.16,18.02
			c-2.98,1.1-8.78,2.04-15.36,2.04c-7.68,0-14.1-2.66-18.02-6.58c-4.39-4.54-6.58-11.91-6.58-22.72v-31.34h-10.19v-17.55h10.19
			V537.4L507.42,530.97z"/>
		<path d="M613.2,589.11c0,28.05-19.9,40.9-40.43,40.9c-22.41,0-39.65-14.73-39.65-39.49c0-24.92,16.3-40.74,41.06-40.74
			C597.53,549.78,613.2,565.92,613.2,589.11z M557.72,589.89c0,13.16,5.48,23.04,15.67,23.04c9.4,0,15.2-9.25,15.2-23.19
			c0-11.28-4.39-22.88-15.2-22.88C562.11,566.86,557.72,578.61,557.72,589.89z"/>
		<path d="M642.98,551.66l6.27,31.5c1.41,7.83,2.98,16.3,4.23,25.07h0.47c1.41-8.78,3.76-17.39,5.48-24.92l8.15-31.65h18.81
			l7.68,30.56c2.19,8.78,4.23,17.24,5.64,26.01h0.31c1.1-8.62,2.66-17.39,4.54-26.17l6.42-30.4h23.35l-23.51,76.63h-22.25
			l-7.21-26.8c-2.04-7.52-3.45-14.42-5.01-23.98h-0.31c-1.41,9.56-2.98,16.77-4.86,23.82l-7.68,26.95h-22.41l-22.41-76.63H642.98z"
			/>
		<path d="M761.44,597.57c0.63,9.87,10.5,14.57,21.63,14.57c8.15,0,14.73-1.1,21.16-3.29l3.13,16.14
			c-7.84,3.29-17.39,4.86-27.74,4.86c-26.01,0-40.9-15.04-40.9-39.02c0-19.43,12.07-40.9,38.71-40.9
			c24.76,0,34.16,19.27,34.16,38.24c0,4.07-0.47,7.68-0.78,9.4H761.44z M789.5,581.27c0-5.8-2.51-15.51-13.48-15.51
			c-10.03,0-14.1,9.25-14.73,15.51H789.5z"/>
		<path d="M825.85,576.89c0-11.28-0.16-18.65-0.63-25.23h20.37l0.94,14.1h0.63c3.92-11.28,13.16-15.98,20.69-15.98
			c2.19,0,3.29,0.16,5.01,0.47v22.41c-1.88-0.31-3.76-0.63-6.42-0.63c-8.78,0-14.73,4.7-16.3,12.07c-0.31,1.57-0.47,3.45-0.47,5.33
			v38.86h-23.82V576.89z"/>
	</g>
</g>
</svg>
